<svg width="131" height="43" viewBox="0 0 131 43" fill="none" xmlns="http://www.w3.org/2000/svg">
<path d="M3.26777 32.9859H4.76364L8.12935 39.9444H6.64683L6.09033 38.7735H2.02566L1.48697 39.9444H0L3.26777 32.9859ZM5.53383 37.6115L4.02906 34.4506L2.56435 37.6115H5.53383Z" fill="white"/>
<path d="M9.04646 34.6866H10.3598V37.2509C10.3598 37.4943 10.3865 37.7169 10.4399 37.9187C10.4934 38.1176 10.5839 38.2882 10.7115 38.4307C10.8421 38.5732 11.0142 38.6845 11.2279 38.7646C11.4446 38.8418 11.7132 38.8804 12.0337 38.8804C12.1851 38.8804 12.338 38.864 12.4923 38.8314C12.6496 38.7987 12.7995 38.7542 12.942 38.6978C13.0844 38.6385 13.2165 38.5687 13.3382 38.4886C13.4628 38.4084 13.5697 38.3209 13.6587 38.2259V34.6866H14.9765V39.9444H13.6587V39.4947C13.3352 39.6877 13.0102 39.8257 12.6837 39.9088C12.3573 39.9919 12.0471 40.0334 11.7533 40.0334C11.2725 40.0334 10.8599 39.9756 10.5156 39.8598C10.1743 39.744 9.89382 39.5764 9.67419 39.3567C9.45752 39.1341 9.29874 38.8626 9.19782 38.542C9.09691 38.2185 9.04646 37.8505 9.04646 37.4379V34.6866Z" fill="white"/>
<path d="M17.4429 35.6794H16.1741V34.691H17.4429V33.0571H18.7607V34.691H20.0295V35.6794H18.7607V39.9444H17.4429V35.6794Z" fill="white"/>
<path d="M20.8843 37.3177C20.8843 36.9408 20.96 36.5876 21.1114 36.2581C21.2657 35.9287 21.4839 35.6408 21.7658 35.3944C22.0507 35.1481 22.3935 34.9537 22.7942 34.8112C23.1979 34.6688 23.6505 34.5975 24.1521 34.5975C24.6537 34.5975 25.1048 34.6688 25.5055 34.8112C25.9091 34.9537 26.2519 35.1481 26.5339 35.3944C26.8188 35.6408 27.037 35.9287 27.1883 36.2581C27.3427 36.5876 27.4198 36.9408 27.4198 37.3177C27.4198 37.6946 27.3427 38.0478 27.1883 38.3773C27.037 38.7067 26.8188 38.9946 26.5339 39.241C26.2519 39.4873 25.9091 39.6817 25.5055 39.8242C25.1048 39.9666 24.6537 40.0379 24.1521 40.0379C23.6505 40.0379 23.1979 39.9666 22.7942 39.8242C22.3935 39.6817 22.0507 39.4873 21.7658 39.241C21.4839 38.9946 21.2657 38.7067 21.1114 38.3773C20.96 38.0478 20.8843 37.6946 20.8843 37.3177ZM22.2689 37.3177C22.2689 37.5284 22.3104 37.7288 22.3935 37.9187C22.4796 38.1057 22.6028 38.2719 22.7631 38.4174C22.9263 38.5598 23.1237 38.6741 23.3552 38.7602C23.5896 38.8433 23.8553 38.8848 24.1521 38.8848C24.4489 38.8848 24.713 38.8433 24.9445 38.7602C25.179 38.6741 25.3764 38.5598 25.5367 38.4174C25.6999 38.2719 25.8231 38.1057 25.9062 37.9187C25.9922 37.7288 26.0353 37.5284 26.0353 37.3177C26.0353 37.107 25.9922 36.9066 25.9062 36.7167C25.8231 36.5267 25.6999 36.3605 25.5367 36.2181C25.3764 36.0726 25.179 35.9584 24.9445 35.8753C24.713 35.7892 24.4489 35.7462 24.1521 35.7462C23.8553 35.7462 23.5896 35.7892 23.3552 35.8753C23.1237 35.9584 22.9263 36.0726 22.7631 36.2181C22.6028 36.3605 22.4796 36.5267 22.3935 36.7167C22.3104 36.9066 22.2689 37.107 22.2689 37.3177Z" fill="white"/>
<path d="M32.2681 37.8742C32.5204 38.0167 32.7756 38.1458 33.0338 38.2615C33.295 38.3743 33.5651 38.4708 33.8441 38.5509C34.1231 38.6281 34.4154 38.6874 34.7211 38.729C35.0298 38.7705 35.3578 38.7913 35.705 38.7913C36.1235 38.7913 36.4797 38.7646 36.7735 38.7112C37.0673 38.6548 37.3062 38.5791 37.4903 38.4841C37.6772 38.3862 37.8123 38.2704 37.8954 38.1369C37.9815 38.0033 38.0245 37.8579 38.0245 37.7006C38.0245 37.4483 37.9191 37.2494 37.7084 37.104C37.4977 36.9556 37.1727 36.8814 36.7334 36.8814C36.5405 36.8814 36.3372 36.8948 36.1235 36.9215C35.9098 36.9452 35.6931 36.9719 35.4735 37.0016C35.2568 37.0313 35.0417 37.0595 34.828 37.0862C34.6172 37.1099 34.4184 37.1218 34.2314 37.1218C33.9198 37.1218 33.62 37.0818 33.3321 37.0016C33.0472 36.9215 32.7934 36.8013 32.5708 36.641C32.3512 36.4807 32.1761 36.2804 32.0455 36.04C31.9149 35.7996 31.8496 35.5191 31.8496 35.1986C31.8496 35.0086 31.8748 34.8201 31.9253 34.6332C31.9787 34.4462 32.0618 34.2681 32.1746 34.0989C32.2903 33.9268 32.4387 33.768 32.6198 33.6226C32.8008 33.4742 33.019 33.3465 33.2742 33.2397C33.5324 33.1328 33.8292 33.0497 34.1646 32.9904C34.503 32.928 34.8873 32.8969 35.3177 32.8969C35.6293 32.8969 35.9425 32.9147 36.2571 32.9503C36.5717 32.9829 36.8774 33.0304 37.1742 33.0928C37.4739 33.1551 37.7618 33.2308 38.0379 33.3198C38.3139 33.4059 38.5706 33.5023 38.8081 33.6092L38.1892 34.7489C37.9933 34.6628 37.7826 34.5842 37.557 34.513C37.3315 34.4388 37.0955 34.3749 36.8492 34.3215C36.6028 34.2681 36.3476 34.2265 36.0834 34.1969C35.8222 34.1642 35.5551 34.1479 35.2821 34.1479C34.8933 34.1479 34.5727 34.1761 34.3204 34.2325C34.0711 34.2889 33.8723 34.3616 33.7239 34.4506C33.5755 34.5367 33.4716 34.6346 33.4122 34.7445C33.3558 34.8513 33.3276 34.9582 33.3276 35.065C33.3276 35.2728 33.4211 35.4434 33.6081 35.577C33.7951 35.7076 34.08 35.7729 34.4629 35.7729C34.6172 35.7729 34.7938 35.7625 34.9927 35.7417C35.1945 35.718 35.4052 35.6927 35.6249 35.666C35.8475 35.6393 36.073 35.6156 36.3016 35.5948C36.5331 35.571 36.7572 35.5592 36.9738 35.5592C37.3834 35.5592 37.7455 35.6052 38.0601 35.6972C38.3777 35.7892 38.6433 35.9213 38.857 36.0934C39.0707 36.2626 39.2325 36.4689 39.3423 36.7122C39.4521 36.9526 39.507 37.2227 39.507 37.5225C39.507 37.9232 39.4135 38.2808 39.2265 38.5954C39.0425 38.9071 38.7784 39.1712 38.4341 39.3879C38.0928 39.6016 37.6802 39.7648 37.1964 39.8776C36.7126 39.9874 36.174 40.0423 35.5804 40.0423C35.1886 40.0423 34.8057 40.0171 34.4317 39.9666C34.0578 39.9192 33.6986 39.8509 33.3544 39.7619C33.013 39.6698 32.6866 39.5615 32.3749 39.4369C32.0662 39.3092 31.7798 39.1697 31.5157 39.0184L32.2681 37.8742Z" fill="white"/>
<path d="M40.6467 37.2999C40.6467 36.9437 40.7194 36.6039 40.8649 36.2804C41.0103 35.9539 41.2196 35.666 41.4926 35.4167C41.7657 35.1674 42.0996 34.9685 42.4943 34.8201C42.892 34.6717 43.3432 34.5975 43.8477 34.5975C44.3493 34.5975 44.8004 34.6732 45.2011 34.8246C45.6048 34.973 45.9461 35.1778 46.2251 35.439C46.507 35.7002 46.7222 36.0073 46.8706 36.3605C47.022 36.7137 47.0977 37.0921 47.0977 37.4958C47.0977 37.5462 47.0962 37.6012 47.0932 37.6605C47.0932 37.7169 47.0903 37.7688 47.0843 37.8163H42.1159C42.1723 37.9736 42.2628 38.1176 42.3875 38.2482C42.5151 38.3788 42.6739 38.4916 42.8638 38.5865C43.0538 38.6815 43.2734 38.7557 43.5227 38.8091C43.772 38.8596 44.0481 38.8848 44.3508 38.8848C44.6535 38.8848 44.9548 38.8536 45.2545 38.7913C45.5543 38.726 45.8407 38.6444 46.1138 38.5465L46.559 39.5526C46.3868 39.6327 46.2117 39.704 46.0336 39.7663C45.8585 39.8257 45.6745 39.8761 45.4816 39.9177C45.2916 39.9563 45.0913 39.9859 44.8806 40.0067C44.6728 40.0275 44.4532 40.0379 44.2217 40.0379C43.6311 40.0379 43.1131 39.9666 42.6679 39.8242C42.2227 39.6817 41.8503 39.4873 41.5505 39.241C41.2507 38.9946 41.0251 38.7052 40.8738 38.3728C40.7224 38.0404 40.6467 37.6828 40.6467 37.2999ZM45.6997 36.7879C45.6523 36.6425 45.5781 36.5074 45.4771 36.3828C45.3792 36.2552 45.256 36.1453 45.1076 36.0533C44.9592 35.9584 44.7871 35.8842 44.5912 35.8307C44.3953 35.7773 44.1801 35.7506 43.9457 35.7506C43.6963 35.7506 43.4693 35.7788 43.2645 35.8352C43.0597 35.8916 42.8801 35.9673 42.7258 36.0622C42.5715 36.1572 42.4424 36.267 42.3385 36.3917C42.2376 36.5163 42.1634 36.6484 42.1159 36.7879H45.6997Z" fill="white"/>
<path d="M48.5179 34.691H49.8356V35.4479C50.1265 35.2312 50.4337 35.0442 50.7572 34.8869C51.0807 34.7296 51.4028 34.6094 51.7233 34.5263L52.1106 35.7328C51.6031 35.7833 51.1564 35.8975 50.7706 36.0756C50.3877 36.2507 50.0761 36.4985 49.8356 36.8191V39.9444H48.5179V34.691Z" fill="white"/>
<path d="M52.3688 34.6866H53.8959L55.2626 37.8475L55.6188 38.7334L55.975 37.8475L57.3417 34.6866H58.8688L56.3801 39.9444H54.8575L52.3688 34.6866Z" fill="white"/>
<path d="M60.4848 33.9743C60.3542 33.9743 60.2355 33.9565 60.1287 33.9208C60.0248 33.8823 59.9357 33.8318 59.8615 33.7695C59.7873 33.7042 59.7295 33.63 59.6879 33.5469C59.6493 33.4608 59.63 33.3703 59.63 33.2753C59.63 33.1774 59.6493 33.0868 59.6879 33.0037C59.7295 32.9177 59.7873 32.8435 59.8615 32.7811C59.9357 32.7188 60.0248 32.6698 60.1287 32.6342C60.2355 32.5956 60.3542 32.5763 60.4848 32.5763C60.6184 32.5763 60.7371 32.5956 60.841 32.6342C60.9478 32.6698 61.0384 32.7188 61.1126 32.7811C61.1868 32.8435 61.2431 32.9177 61.2817 33.0037C61.3233 33.0868 61.3441 33.1774 61.3441 33.2753C61.3441 33.3703 61.3233 33.4608 61.2817 33.5469C61.2431 33.63 61.1868 33.7042 61.1126 33.7695C61.0384 33.8318 60.9478 33.8823 60.841 33.9208C60.7371 33.9565 60.6184 33.9743 60.4848 33.9743ZM59.8259 34.691H61.1437V39.9444H59.8259V34.691Z" fill="white"/>
<path d="M62.5194 37.3311C62.5194 36.9452 62.5891 36.5861 62.7286 36.2537C62.8711 35.9183 63.0774 35.6289 63.3475 35.3855C63.6205 35.1392 63.9529 34.9463 64.3447 34.8068C64.7394 34.6673 65.1891 34.5975 65.6937 34.5975C65.9133 34.5975 66.1344 34.6109 66.357 34.6376C66.5796 34.6643 66.7933 34.7029 66.9981 34.7534C67.2059 34.8008 67.4003 34.8587 67.5813 34.927C67.7624 34.9923 67.9197 35.065 68.0532 35.1451L67.4433 36.1379C67.1554 36.0044 66.8823 35.9064 66.6241 35.8441C66.3689 35.7818 66.1092 35.7506 65.845 35.7506C65.5423 35.7506 65.2707 35.7907 65.0303 35.8708C64.7899 35.948 64.5851 36.0578 64.4159 36.2003C64.2497 36.3398 64.1221 36.506 64.0331 36.6989C63.947 36.8888 63.904 37.0966 63.904 37.3222C63.904 37.5477 63.95 37.757 64.042 37.9499C64.1369 38.1398 64.269 38.3046 64.4382 38.4441C64.6103 38.5806 64.8166 38.6889 65.057 38.7691C65.3004 38.8462 65.5705 38.8848 65.8673 38.8848C66.1938 38.8848 66.501 38.8388 66.7888 38.7468C67.0797 38.6548 67.3498 38.5316 67.5991 38.3773L68.209 39.3701C68.0517 39.4651 67.8811 39.5541 67.6971 39.6372C67.513 39.7173 67.3157 39.7871 67.1049 39.8464C66.8972 39.9058 66.6776 39.9518 66.446 39.9845C66.2175 40.0201 65.9801 40.0379 65.7337 40.0379C65.2321 40.0379 64.7825 39.9696 64.3848 39.8331C63.9871 39.6966 63.6502 39.5081 63.3742 39.2677C63.0981 39.0243 62.8859 38.7379 62.7375 38.4084C62.5921 38.079 62.5194 37.7199 62.5194 37.3311Z" fill="white"/>
<path d="M69.3799 37.2999C69.3799 36.9437 69.4526 36.6039 69.5981 36.2804C69.7435 35.9539 69.9527 35.666 70.2258 35.4167C70.4988 35.1674 70.8327 34.9685 71.2275 34.8201C71.6252 34.6717 72.0763 34.5975 72.5809 34.5975C73.0825 34.5975 73.5336 34.6732 73.9343 34.8246C74.338 34.973 74.6793 35.1778 74.9583 35.439C75.2402 35.7002 75.4554 36.0073 75.6038 36.3605C75.7552 36.7137 75.8309 37.0921 75.8309 37.4958C75.8309 37.5462 75.8294 37.6012 75.8264 37.6605C75.8264 37.7169 75.8234 37.7688 75.8175 37.8163H70.8491C70.9055 37.9736 70.996 38.1176 71.1206 38.2482C71.2483 38.3788 71.4071 38.4916 71.597 38.5865C71.787 38.6815 72.0066 38.7557 72.2559 38.8091C72.5052 38.8596 72.7812 38.8848 73.084 38.8848C73.3867 38.8848 73.688 38.8536 73.9877 38.7913C74.2875 38.726 74.5739 38.6444 74.847 38.5465L75.2922 39.5526C75.12 39.6327 74.9449 39.704 74.7668 39.7663C74.5917 39.8257 74.4077 39.8761 74.2148 39.9177C74.0248 39.9563 73.8245 39.9859 73.6138 40.0067C73.406 40.0275 73.1864 40.0379 72.9549 40.0379C72.3642 40.0379 71.8463 39.9666 71.4011 39.8242C70.9559 39.6817 70.5834 39.4873 70.2837 39.241C69.9839 38.9946 69.7583 38.7052 69.607 38.3728C69.4556 38.0404 69.3799 37.6828 69.3799 37.2999ZM74.4329 36.7879C74.3854 36.6425 74.3112 36.5074 74.2103 36.3828C74.1124 36.2552 73.9892 36.1453 73.8408 36.0533C73.6924 35.9584 73.5203 35.8842 73.3244 35.8307C73.1285 35.7773 72.9133 35.7506 72.6788 35.7506C72.4295 35.7506 72.2025 35.7788 71.9977 35.8352C71.7929 35.8916 71.6133 35.9673 71.459 36.0622C71.3047 36.1572 71.1756 36.267 71.0717 36.3917C70.9708 36.5163 70.8966 36.6484 70.8491 36.7879H74.4329Z" fill="white"/>
<path d="M80.1983 37.7273C80.1983 37.5819 80.2131 37.4379 80.2428 37.2954C80.2725 37.153 80.3229 37.0046 80.3941 36.8502C80.4684 36.6959 80.5648 36.5342 80.6835 36.365C80.8052 36.1928 80.9581 36.0044 81.1421 35.7996C81.0382 35.6304 80.9625 35.4657 80.915 35.3054C80.8705 35.1422 80.8483 34.976 80.8483 34.8068C80.8483 34.5278 80.9046 34.2711 81.0174 34.0366C81.1302 33.8021 81.289 33.6003 81.4938 33.4311C81.6986 33.259 81.9435 33.1254 82.2284 33.0304C82.5133 32.9355 82.8279 32.888 83.1722 32.888C83.5402 32.888 83.8712 32.9414 84.165 33.0482C84.4618 33.1551 84.7141 33.299 84.9218 33.4801C85.1296 33.6611 85.2884 33.8733 85.3982 34.1167C85.511 34.3571 85.5674 34.6109 85.5674 34.878C85.5674 35.0413 85.5451 35.206 85.5006 35.3722C85.459 35.5354 85.3952 35.7061 85.3092 35.8842C85.2231 36.0593 85.1162 36.2433 84.9886 36.4362C84.861 36.6291 84.7126 36.8354 84.5434 37.055L85.5985 37.843C85.8271 37.573 86.0185 37.2658 86.1728 36.9215C86.3301 36.5742 86.4518 36.1988 86.5379 35.7951H86.0883V34.691H89.0266V35.7951H87.7088C87.6049 36.3056 87.4624 36.7939 87.2814 37.2598C87.1003 37.7228 86.8629 38.1443 86.5691 38.5242C86.7056 38.6014 86.8347 38.6622 86.9564 38.7067C87.0811 38.7483 87.2013 38.778 87.317 38.7958C87.4328 38.8136 87.5455 38.821 87.6554 38.818C87.7681 38.8151 87.8839 38.8047 88.0026 38.7869L88.4033 39.9399C88.148 39.9904 87.9076 40.023 87.6821 40.0379C87.4595 40.0527 87.2369 40.0423 87.0143 40.0067C86.7946 39.9741 86.5676 39.9117 86.3331 39.8197C86.1016 39.7277 85.8508 39.5971 85.5807 39.428C85.2721 39.6209 84.9263 39.7708 84.5434 39.8776C84.1635 39.9845 83.7346 40.0379 83.2568 40.0379C82.7493 40.0379 82.3041 39.977 81.9212 39.8553C81.5383 39.7337 81.2193 39.5689 80.964 39.3612C80.7088 39.1504 80.5173 38.9056 80.3897 38.6266C80.2621 38.3446 80.1983 38.0449 80.1983 37.7273ZM83.5907 36.3383C83.8044 36.0563 83.9557 35.807 84.0448 35.5903C84.1368 35.3707 84.1828 35.1629 84.1828 34.9671C84.1828 34.8038 84.1546 34.6643 84.0982 34.5486C84.0448 34.4298 83.9721 34.3334 83.8801 34.2592C83.7881 34.185 83.6797 34.1301 83.5551 34.0945C83.4334 34.0588 83.3043 34.041 83.1677 34.041C83.0193 34.041 82.8873 34.0603 82.7715 34.0989C82.6558 34.1345 82.5578 34.185 82.4777 34.2503C82.3976 34.3156 82.3367 34.3927 82.2952 34.4818C82.2536 34.5708 82.2328 34.6673 82.2328 34.7712C82.2328 34.8483 82.2462 34.9314 82.2729 35.0205C82.3026 35.1066 82.3545 35.203 82.4287 35.3099C82.5059 35.4167 82.6112 35.5339 82.7448 35.6616C82.8813 35.7892 83.055 35.9331 83.2657 36.0934L83.5907 36.3383ZM81.5828 37.6293C81.5828 37.7956 81.617 37.9543 81.6852 38.1057C81.7565 38.2571 81.8633 38.3906 82.0058 38.5064C82.1512 38.6221 82.3323 38.7142 82.5489 38.7824C82.7686 38.8507 83.0268 38.8848 83.3236 38.8848C83.5432 38.8848 83.751 38.8655 83.9468 38.8269C84.1427 38.7884 84.3297 38.732 84.5078 38.6578L82.3352 37.0061C82.267 36.9556 82.2017 36.9052 82.1393 36.8547C82.077 36.8042 82.0162 36.7538 81.9568 36.7033C81.8381 36.8517 81.7461 37.0016 81.6808 37.153C81.6155 37.3014 81.5828 37.4602 81.5828 37.6293Z" fill="white"/>
<path d="M93.3628 32.9859H96.9022C97.4364 32.9859 97.8994 33.0423 98.2912 33.1551C98.683 33.2649 99.0079 33.4252 99.2662 33.6359C99.5244 33.8466 99.7158 34.1034 99.8405 34.4061C99.9681 34.7088 100.032 35.0516 100.032 35.4345C100.032 35.6927 100.001 35.9391 99.9384 36.1735C99.8761 36.405 99.7796 36.6187 99.649 36.8146C99.5214 37.0105 99.3597 37.1856 99.1638 37.34C98.9679 37.4913 98.7379 37.6175 98.4737 37.7184L99.9874 39.9444H98.26L96.9511 37.9677H96.9111L94.7741 37.9632V39.9444H93.3628V32.9859ZM96.9378 36.7434C97.2049 36.7434 97.4379 36.7122 97.6367 36.6499C97.8386 36.5876 98.0062 36.5 98.1398 36.3872C98.2763 36.2745 98.3773 36.1379 98.4426 35.9777C98.5108 35.8144 98.5449 35.6334 98.5449 35.4345C98.5449 35.0457 98.4114 34.7459 98.1443 34.5352C97.8771 34.3215 97.475 34.2147 96.9378 34.2147H94.7741V36.7434H96.9378Z" fill="white"/>
<path d="M101.292 37.2999C101.292 36.9437 101.365 36.6039 101.51 36.2804C101.655 35.9539 101.865 35.666 102.138 35.4167C102.411 35.1674 102.745 34.9685 103.139 34.8201C103.537 34.6717 103.988 34.5975 104.493 34.5975C104.994 34.5975 105.446 34.6732 105.846 34.8246C106.25 34.973 106.591 35.1778 106.87 35.439C107.152 35.7002 107.367 36.0073 107.516 36.3605C107.667 36.7137 107.743 37.0921 107.743 37.4958C107.743 37.5462 107.741 37.6012 107.738 37.6605C107.738 37.7169 107.735 37.7688 107.729 37.8163H102.761C102.817 37.9736 102.908 38.1176 103.033 38.2482C103.16 38.3788 103.319 38.4916 103.509 38.5865C103.699 38.6815 103.919 38.7557 104.168 38.8091C104.417 38.8596 104.693 38.8848 104.996 38.8848C105.299 38.8848 105.6 38.8536 105.9 38.7913C106.199 38.726 106.486 38.6444 106.759 38.5465L107.204 39.5526C107.032 39.6327 106.857 39.704 106.679 39.7663C106.504 39.8257 106.32 39.8761 106.127 39.9177C105.937 39.9563 105.736 39.9859 105.526 40.0067C105.318 40.0275 105.098 40.0379 104.867 40.0379C104.276 40.0379 103.758 39.9666 103.313 39.8242C102.868 39.6817 102.495 39.4873 102.196 39.241C101.896 38.9946 101.67 38.7052 101.519 38.3728C101.368 38.0404 101.292 37.6828 101.292 37.2999ZM106.345 36.7879C106.297 36.6425 106.223 36.5074 106.122 36.3828C106.024 36.2552 105.901 36.1453 105.753 36.0533C105.604 35.9584 105.432 35.8842 105.236 35.8307C105.04 35.7773 104.825 35.7506 104.591 35.7506C104.341 35.7506 104.114 35.7788 103.91 35.8352C103.705 35.8916 103.525 35.9673 103.371 36.0622C103.217 36.1572 103.087 36.267 102.984 36.3917C102.883 36.5163 102.808 36.6484 102.761 36.7879H106.345Z" fill="white"/>
<path d="M110.445 42.0902H109.127V34.691H110.445V35.1852C110.561 35.1051 110.697 35.0294 110.855 34.9582C111.012 34.8869 111.181 34.8246 111.362 34.7712C111.543 34.7177 111.73 34.6762 111.923 34.6465C112.116 34.6139 112.309 34.5975 112.502 34.5975C112.947 34.5975 113.355 34.6628 113.726 34.7934C114.1 34.924 114.421 35.108 114.688 35.3455C114.955 35.5829 115.163 35.8678 115.311 36.2003C115.463 36.5297 115.538 36.8948 115.538 37.2954C115.538 37.7139 115.46 38.0924 115.302 38.4307C115.145 38.7661 114.927 39.054 114.648 39.2944C114.372 39.5318 114.042 39.7159 113.659 39.8464C113.28 39.9741 112.867 40.0379 112.422 40.0379C112.232 40.0379 112.043 40.026 111.856 40.0023C111.672 39.9785 111.494 39.9459 111.322 39.9043C111.153 39.8628 110.993 39.8138 110.841 39.7574C110.693 39.698 110.561 39.6342 110.445 39.566V42.0902ZM110.445 38.2927C110.579 38.3995 110.72 38.4901 110.868 38.5643C111.016 38.6385 111.168 38.6993 111.322 38.7468C111.477 38.7943 111.632 38.8299 111.79 38.8536C111.947 38.8744 112.1 38.8848 112.248 38.8848C112.551 38.8848 112.82 38.8447 113.054 38.7646C113.291 38.6815 113.49 38.5687 113.651 38.4263C113.814 38.2838 113.938 38.1161 114.025 37.9232C114.111 37.7303 114.154 37.521 114.154 37.2954C114.154 37.0847 114.111 36.8859 114.025 36.6989C113.941 36.5119 113.82 36.3487 113.659 36.2092C113.502 36.0667 113.311 35.9554 113.085 35.8753C112.863 35.7922 112.612 35.7506 112.333 35.7506C112.155 35.7506 111.977 35.7684 111.799 35.804C111.62 35.8367 111.448 35.8842 111.282 35.9465C111.119 36.0088 110.965 36.0845 110.819 36.1735C110.677 36.2626 110.552 36.362 110.445 36.4718V38.2927Z" fill="white"/>
<path d="M116.535 38.2882C116.535 38.036 116.59 37.8059 116.7 37.5982C116.81 37.3904 116.975 37.2123 117.194 37.0639C117.414 36.9126 117.687 36.7968 118.014 36.7167C118.343 36.6336 118.726 36.592 119.162 36.592C119.486 36.592 119.825 36.6158 120.182 36.6633C120.541 36.7108 120.91 36.7835 121.29 36.8814C121.275 36.7152 121.225 36.5624 121.139 36.4229C121.053 36.2804 120.933 36.1587 120.778 36.0578C120.627 35.9539 120.443 35.8738 120.226 35.8174C120.012 35.761 119.769 35.7328 119.496 35.7328C119.348 35.7328 119.184 35.7417 119.006 35.7595C118.828 35.7773 118.644 35.804 118.454 35.8396C118.264 35.8753 118.076 35.9198 117.889 35.9732C117.705 36.0266 117.533 36.0904 117.372 36.1646L116.972 35.0828C117.171 35.0116 117.383 34.9463 117.608 34.8869C117.837 34.8276 118.07 34.7771 118.307 34.7356C118.545 34.691 118.782 34.6569 119.02 34.6332C119.257 34.6094 119.487 34.5975 119.71 34.5975C120.692 34.5975 121.422 34.8483 121.9 35.3499C122.378 35.8515 122.617 36.6202 122.617 37.6561V39.9444H121.299V39.4502C121.163 39.5304 121.013 39.606 120.849 39.6773C120.689 39.7485 120.514 39.8108 120.324 39.8643C120.134 39.9177 119.929 39.9592 119.71 39.9889C119.493 40.0216 119.263 40.0379 119.02 40.0379C118.61 40.0379 118.249 39.9934 117.938 39.9043C117.629 39.8153 117.371 39.6921 117.163 39.5348C116.955 39.3775 116.798 39.1935 116.691 38.9828C116.587 38.7691 116.535 38.5376 116.535 38.2882ZM117.924 38.2437C117.924 38.3298 117.947 38.4129 117.991 38.493C118.036 38.5702 118.107 38.64 118.205 38.7023C118.303 38.7616 118.428 38.8106 118.579 38.8492C118.733 38.8848 118.919 38.9026 119.135 38.9026C119.367 38.9026 119.591 38.8818 119.808 38.8403C120.024 38.7987 120.226 38.7438 120.413 38.6756C120.6 38.6073 120.769 38.5287 120.921 38.4396C121.072 38.3506 121.198 38.2586 121.299 38.1636V37.9321C121.097 37.8757 120.897 37.8282 120.698 37.7896C120.502 37.751 120.314 37.7214 120.133 37.7006C119.955 37.6768 119.785 37.6605 119.625 37.6516C119.468 37.6427 119.33 37.6383 119.211 37.6383C118.965 37.6383 118.76 37.6546 118.597 37.6872C118.433 37.7199 118.301 37.7644 118.201 37.8208C118.1 37.8742 118.028 37.938 117.987 38.0122C117.945 38.0864 117.924 38.1636 117.924 38.2437Z" fill="white"/>
<path d="M125.057 33.9743C124.926 33.9743 124.807 33.9565 124.7 33.9208C124.597 33.8823 124.507 33.8318 124.433 33.7695C124.359 33.7042 124.301 33.63 124.26 33.5469C124.221 33.4608 124.202 33.3703 124.202 33.2753C124.202 33.1774 124.221 33.0868 124.26 33.0037C124.301 32.9177 124.359 32.8435 124.433 32.7811C124.507 32.7188 124.597 32.6698 124.7 32.6342C124.807 32.5956 124.926 32.5763 125.057 32.5763C125.19 32.5763 125.309 32.5956 125.413 32.6342C125.52 32.6698 125.61 32.7188 125.684 32.7811C125.759 32.8435 125.815 32.9177 125.853 33.0037C125.895 33.0868 125.916 33.1774 125.916 33.2753C125.916 33.3703 125.895 33.4608 125.853 33.5469C125.815 33.63 125.759 33.7042 125.684 33.7695C125.61 33.8318 125.52 33.8823 125.413 33.9208C125.309 33.9565 125.19 33.9743 125.057 33.9743ZM124.398 34.691H125.715V39.9444H124.398V34.691Z" fill="white"/>
<path d="M127.407 34.691H128.725V35.4479C129.016 35.2312 129.323 35.0442 129.647 34.8869C129.97 34.7296 130.292 34.6094 130.613 34.5263L131 35.7328C130.492 35.7833 130.046 35.8975 129.66 36.0756C129.277 36.2507 128.965 36.4985 128.725 36.8191V39.9444H127.407V34.691Z" fill="white"/>
<path fill-rule="evenodd" clip-rule="evenodd" d="M5.509 3.08765C5.23286 2.60936 5.39673 1.99777 5.87502 1.72163L8.62463 0.134142C9.10292 -0.142001 9.71451 0.0218744 9.99066 0.500167L11.9544 3.9015C13.6814 3.32531 15.6437 3.03722 17.8413 3.03722C18.6696 3.03722 19.4979 3.08339 20.3261 3.17575C21.1646 3.25784 21.9878 3.39124 22.7956 3.57595C23.6137 3.76066 24.4062 3.99668 25.1731 4.28401C25.9503 4.56108 26.6865 4.89458 27.3819 5.28453L25.1424 8.97874C24.7232 8.73246 24.2477 8.51183 23.7159 8.31686C23.1842 8.11162 22.6116 7.9423 21.998 7.8089C21.3947 7.66524 20.7658 7.55749 20.1114 7.48566C19.4672 7.41383 18.8178 7.37791 18.1634 7.37791C16.65 7.37791 15.3002 7.57288 14.114 7.96283C12.9278 8.34251 11.9257 8.88125 11.1077 9.57904C10.2896 10.2666 9.66585 11.0926 9.23637 12.0572C8.80689 13.0218 8.59215 14.0788 8.59215 15.2281C8.59215 16.4185 8.81712 17.5113 9.26705 18.5067C9.71698 19.5021 10.3561 20.359 11.1844 21.0773C12.0126 21.7956 13.0148 22.36 14.1907 22.7704C15.3667 23.1707 16.6807 23.3708 18.1327 23.3708C19.2882 23.3708 20.3466 23.2425 21.3078 22.9859C22.269 22.7191 23.1075 22.3446 23.8233 21.8623C24.5391 21.38 25.122 20.8002 25.5719 20.1229C26.0218 19.4354 26.3184 18.6658 26.4615 17.8141H18.0867V13.7966H30.833V13.812L30.8484 13.7966C31.104 15.028 31.1807 16.2286 31.0784 17.3985C30.9864 18.558 30.7205 19.656 30.2808 20.6925C29.8514 21.7186 29.2583 22.6627 28.5016 23.5247C27.7449 24.3867 26.8399 25.1306 25.7866 25.7566C24.7334 26.3723 23.537 26.8546 22.1974 27.2035C20.8579 27.5421 19.3905 27.7115 17.7953 27.7115C15.5661 27.7115 13.567 27.3831 11.7979 26.7263C11.6911 26.6865 11.5853 26.6457 11.4805 26.604L9.96955 29.221C9.69341 29.6993 9.08182 29.8632 8.60353 29.587L5.85392 27.9995C5.37563 27.7234 5.21175 27.1118 5.4879 26.6335L7.10628 23.8304C6.38863 23.1317 5.7745 22.3626 5.26388 21.523L2.13934 22.3602C1.60587 22.5032 1.05754 22.1866 0.914594 21.6531L0.0928505 18.5863C-0.0500913 18.0529 0.266491 17.5045 0.799957 17.3616L3.61058 16.6085C3.55715 16.1261 3.53044 15.6352 3.53044 15.1358C3.53044 14.4242 3.58641 13.7327 3.69837 13.061L0.799954 12.2844C0.266488 12.1415 -0.0500944 11.5931 0.0928474 11.0597L0.914591 7.99288C1.05753 7.45941 1.60587 7.14283 2.13934 7.28577L5.71064 8.2427C6.15955 7.6327 6.67524 7.06737 7.2577 6.54671C7.31212 6.49807 7.3671 6.44988 7.42263 6.40215L5.509 3.08765ZM96.6047 1.85199H92.6627V12.6576H96.6047V1.85199ZM57.0006 3.32967H36.585V27.3882H57.3227V23.1245H41.4473V16.4287H55.2213V12.4113H41.4473V7.6088H57.0006V3.32967ZM62.7218 3.32967H74.916C76.7566 3.32967 78.3518 3.52465 79.7016 3.91459C81.0514 4.29427 82.1711 4.8484 83.0607 5.57698C83.9504 6.30556 84.6099 7.1932 85.0394 8.23989C85.4791 9.28659 85.699 10.4718 85.699 11.7956C85.699 12.6883 85.5916 13.5401 85.3769 14.3507C85.1621 15.1511 84.8298 15.89 84.3799 16.5673C83.9401 17.2445 83.3828 17.85 82.7079 18.3836C82.0331 18.9069 81.2406 19.343 80.3305 19.6919L85.5456 27.3882H79.5942L75.0847 20.5539H74.9466L67.5842 20.5385V27.3882H62.7218V3.32967ZM75.0387 16.321C75.959 16.321 76.7617 16.2132 77.4468 15.9977C78.1422 15.7822 78.7199 15.4795 79.1801 15.0896C79.6505 14.6996 79.9981 14.2276 80.2231 13.6735C80.4583 13.1091 80.5759 12.4831 80.5759 11.7956C80.5759 10.4513 80.1157 9.41486 79.1954 8.68628C78.2751 7.94744 76.8895 7.57801 75.0387 7.57801H67.5842V16.321H75.0387ZM105.746 20.2307C106.616 20.7232 107.495 21.1696 108.385 21.5698C109.285 21.9598 110.215 22.2933 111.176 22.5703C112.137 22.8372 113.145 23.0424 114.198 23.186C115.261 23.3297 116.391 23.4015 117.588 23.4015C119.03 23.4015 120.257 23.3092 121.269 23.1245C122.281 22.9295 123.105 22.6678 123.739 22.3395C124.383 22.0008 124.848 21.6006 125.134 21.1388C125.431 20.6771 125.579 20.1742 125.579 19.6304C125.579 18.7581 125.216 18.0706 124.49 17.5678C123.764 17.0547 122.644 16.7981 121.131 16.7981C120.466 16.7981 119.766 16.8443 119.03 16.9367C118.293 17.0188 117.547 17.1111 116.79 17.2137C116.044 17.3164 115.302 17.4138 114.566 17.5062C113.84 17.5883 113.155 17.6293 112.511 17.6293C111.437 17.6293 110.404 17.4908 109.412 17.2137C108.431 16.9367 107.556 16.5211 106.789 15.9669C106.033 15.4128 105.429 14.7202 104.979 13.889C104.53 13.0578 104.305 12.088 104.305 10.9798C104.305 10.323 104.392 9.6714 104.565 9.02491C104.749 8.37843 105.036 7.76272 105.424 7.17781C105.823 6.58263 106.334 6.03363 106.958 5.53081C107.582 5.01772 108.334 4.57647 109.213 4.20705C110.103 3.83763 111.125 3.5503 112.281 3.34507C113.446 3.12957 114.771 3.02182 116.253 3.02182C117.327 3.02182 118.406 3.08339 119.49 3.20653C120.574 3.31941 121.627 3.4836 122.649 3.69909C123.682 3.91459 124.674 4.17626 125.625 4.48411C126.576 4.7817 127.461 5.11521 128.279 5.48463L126.147 9.42512C125.472 9.12753 124.746 8.8556 123.969 8.60931C123.191 8.35277 122.379 8.13215 121.53 7.94744C120.681 7.76272 119.802 7.61906 118.892 7.51644C117.992 7.40357 117.071 7.34713 116.131 7.34713C114.791 7.34713 113.687 7.44461 112.817 7.63958C111.959 7.83456 111.273 8.08597 110.762 8.39382C110.251 8.69141 109.893 9.03004 109.688 9.40973C109.494 9.77915 109.397 10.1486 109.397 10.518C109.397 11.2363 109.719 11.8264 110.363 12.2881C111.008 12.7396 111.989 12.9654 113.308 12.9654C113.84 12.9654 114.448 12.9295 115.134 12.8577C115.829 12.7756 116.555 12.6883 117.312 12.596C118.079 12.5036 118.856 12.4215 119.643 12.3497C120.441 12.2676 121.213 12.2266 121.959 12.2266C123.37 12.2266 124.618 12.3856 125.702 12.7037C126.796 13.0218 127.711 13.4785 128.447 14.0737C129.184 14.6586 129.741 15.3718 130.119 16.2132C130.498 17.0444 130.687 17.9782 130.687 19.0147C130.687 20.4 130.365 21.6365 129.721 22.7243C129.087 23.8017 128.176 24.715 126.99 25.4641C125.814 26.203 124.393 26.7674 122.726 27.1573C121.059 27.537 119.203 27.7268 117.158 27.7268C115.809 27.7268 114.489 27.6396 113.201 27.4652C111.913 27.301 110.675 27.065 109.489 26.7571C108.313 26.439 107.188 26.0645 106.115 25.6335C105.051 25.1922 104.064 24.7099 103.154 24.1866L105.746 20.2307Z" fill="#0EC281"/>
</svg>
