<svg width="24" height="41" viewBox="0 0 24 41" fill="none" xmlns="http://www.w3.org/2000/svg">
<path fill-rule="evenodd" clip-rule="evenodd" d="M12.7777 0H11.0925V6.09261H5V7.7778H11.0925V14H12.7777V7.7778H19V6.09261H12.7777V0Z" fill="white"/>
<path d="M20.772 27.156L19.404 23.051C19.2056 22.4535 18.8238 21.9337 18.3131 21.5655C17.8024 21.1973 17.1886 20.9994 16.559 21H7.441C6.81139 20.9994 6.19761 21.1973 5.68688 21.5655C5.17615 21.9337 4.79445 22.4535 4.596 23.051L3.228 27.156C2.86461 27.3085 2.55428 27.5648 2.33584 27.8928C2.11741 28.2208 2.00059 28.6059 2 29V34C2 34.753 2.423 35.402 3.039 35.743C3.026 35.809 3 35.869 3 35.938V38C3 38.2652 3.10536 38.5196 3.29289 38.7071C3.48043 38.8946 3.73478 39 4 39H5C5.26522 39 5.51957 38.8946 5.70711 38.7071C5.89464 38.5196 6 38.2652 6 38V36H18V38C18 38.2652 18.1054 38.5196 18.2929 38.7071C18.4804 38.8946 18.7348 39 19 39H20C20.2652 39 20.5196 38.8946 20.7071 38.7071C20.8946 38.5196 21 38.2652 21 38V35.938C21 35.869 20.974 35.808 20.961 35.743C21.2744 35.5721 21.5362 35.3202 21.7189 35.0136C21.9017 34.707 21.9988 34.357 22 34V29C22 28.171 21.492 27.459 20.772 27.156ZM4 34V29H20L20.002 34H4ZM7.441 23H16.558C16.989 23 17.371 23.274 17.507 23.684L18.613 27H5.387L6.492 23.684C6.55835 23.4848 6.68572 23.3115 6.85605 23.1888C7.02638 23.066 7.23104 23 7.441 23V23Z" fill="white"/>
<path d="M6.5 33C7.32843 33 8 32.3284 8 31.5C8 30.6716 7.32843 30 6.5 30C5.67157 30 5 30.6716 5 31.5C5 32.3284 5.67157 33 6.5 33Z" fill="white"/>
<path d="M17.5 33C18.3284 33 19 32.3284 19 31.5C19 30.6716 18.3284 30 17.5 30C16.6716 30 16 30.6716 16 31.5C16 32.3284 16.6716 33 17.5 33Z" fill="white"/>
</svg>
