<svg width="24" height="41" viewBox="0 0 24 41" fill="none" xmlns="http://www.w3.org/2000/svg">
<path fill-rule="evenodd" clip-rule="evenodd" d="M12.7777 0H11.0925V6.09261H5V7.7778H11.0925V14H12.7777V7.7778H19V6.09261H12.7777V0Z" fill="white"/>
<path d="M15.75 39.5C14.5633 39.5 13.4033 39.1481 12.4166 38.4888C11.4299 37.8295 10.6609 36.8925 10.2067 35.7961C9.7526 34.6997 9.63378 33.4933 9.86529 32.3295C10.0968 31.1656 10.6682 30.0965 11.5074 29.2574C12.3465 28.4182 13.4156 27.8468 14.5795 27.6153C15.7433 27.3838 16.9497 27.5026 18.0461 27.9567C19.1425 28.4109 20.0795 29.1799 20.7388 30.1666C21.3981 31.1533 21.75 32.3133 21.75 33.5C21.75 35.0913 21.1179 36.6174 19.9926 37.7426C18.8674 38.8679 17.3413 39.5 15.75 39.5ZM15.75 29C14.86 29 13.99 29.2639 13.2499 29.7584C12.5099 30.2529 11.9331 30.9557 11.5925 31.7779C11.252 32.6002 11.1628 33.505 11.3365 34.3779C11.5101 35.2508 11.9387 36.0526 12.568 36.682C13.1974 37.3113 13.9992 37.7399 14.8721 37.9135C15.745 38.0872 16.6498 37.9981 17.4721 37.6575C18.2943 37.3169 18.9972 36.7401 19.4916 36.0001C19.9861 35.26 20.25 34.39 20.25 33.5C20.25 32.3065 19.7759 31.1619 18.932 30.318C18.0881 29.4741 16.9435 29 15.75 29Z" fill="white"/>
<path d="M16.9425 35.75L15 33.8075V30.5H16.5V33.1925L18 34.6925L16.9425 35.75Z" fill="white"/>
<path d="M21 21.5C21 21.1022 20.842 20.7206 20.5607 20.4393C20.2794 20.158 19.8978 20 19.5 20H16.5V18.5H15V20H9V18.5H7.5V20H4.5C4.10218 20 3.72064 20.158 3.43934 20.4393C3.15804 20.7206 3 21.1022 3 21.5V36.5C3 36.8978 3.15804 37.2794 3.43934 37.5607C3.72064 37.842 4.10218 38 4.5 38H7.5V36.5H4.5V21.5H7.5V23H9V21.5H15V23H16.5V21.5H19.5V26H21V21.5Z" fill="white"/>
</svg>
